<?xml version="1.0" encoding="UTF-8"?>
<svg id="Layer_1" data-name="Layer 1" xmlns="http://www.w3.org/2000/svg" viewBox="0 0 800 800">
  <defs>
    <style>
      .cls-1 {
        fill: none;
        stroke: #fff;
        stroke-miterlimit: 10;
        stroke-width: 21px;
      }
    </style>
  </defs>
  <g>
    <path d="M419.59,623.78c-1.01.89-2.8.6-3.54,1.13-15.55,11.21-34.08,16.56-53.7,15.12-4.9-.36-16.9-1.42-17.35-7.6-.75-10.22,11.46-4.37,16.59-4.31,9.01.1,21.44-3,29.92-6.12,6.36-2.34,22.2-12.63,27.41-10.03,3.25,1.62,3.18,9.58.66,11.82Z"/>
    <path d="M511.57,428.89c-.89,5.58-3.26,9.16-7.16,12.89-14.42,13.54-28.28,10.37-45.82,4.93l-.93,1.77c9.21,15.82-7.53,41.36-24.93,25.87-8.23-7.26-9.82-14.47-6.7-24.93-5.16,1.35-10.28,2.93-15.4,4.61-1.72.6-2.93,2.14-4.65,2.47-1.81.33-6.88,0-7.54-1.72-.05-.28-.09-.56-.14-.88v-.05c0-.88.32-1.86.6-2.6,2.28-5.86,18.47-13.26,24.47-15.72,1.39-.56,5.3-1.95,7.12-2.61,9.54-3.4,20.61-4.51,30.61-2.98,14.09,2.19,25.31,9.49,40.01,4.14,4-1.49,6.61-4.51,10.47-5.16Z"/>
    <path d="M501.1,434.05c-14.7,5.35-25.91-1.95-40.01-4.14-10-1.53-21.07-.42-30.61,2.98-1.81.65-5.72,2.05-7.12,2.61-6,2.47-22.19,9.86-24.47,15.72-.28.74-.6,1.72-.6,2.6v.05c.05.33.09.6.14.88.65,1.72,5.72,2.05,7.54,1.72,1.72-.33,2.93-1.86,4.65-2.47,5.12-1.67,10.24-3.26,15.4-4.61-3.12,10.47-1.54,17.68,6.7,24.93,17.4,15.49,34.14-10.05,24.93-25.87l.93-1.77c17.54,5.44,31.4,8.61,45.82-4.93,3.91-3.72,6.28-7.3,7.16-12.89-3.86.65-6.47,3.68-10.47,5.16ZM672.76,712.99c2.05-1.86,4.14-3.86,6.23-6.05,7.68-8,14.14-17.12,19.68-26.75-7.81,12.42-16.51,23.45-25.91,32.8ZM501.1,434.05c-14.7,5.35-25.91-1.95-40.01-4.14-10-1.53-21.07-.42-30.61,2.98-1.81.65-5.72,2.05-7.12,2.61-6,2.47-22.19,9.86-24.47,15.72-.28.74-.6,1.72-.6,2.6v.05c.05.33.09.6.14.88.65,1.72,5.72,2.05,7.54,1.72,1.72-.33,2.93-1.86,4.65-2.47,5.12-1.67,10.24-3.26,15.4-4.61-3.12,10.47-1.54,17.68,6.7,24.93,17.4,15.49,34.14-10.05,24.93-25.87l.93-1.77c17.54,5.44,31.4,8.61,45.82-4.93,3.91-3.72,6.28-7.3,7.16-12.89-3.86.65-6.47,3.68-10.47,5.16Z"/>
    <path d="M726.35,325.9c-37.45-109.55-145.42-268.42-318.62-272.51-31.45-.74-61.08,3.72-88.81,12.28-58.15,17.86-107.83,53.68-147.79,96.95-48.85,52.89-83.22,116.9-100.95,172.77-15.49,48.94-21.86,103.04-19.82,155,4.09,103.51,41.5,198.73,106.62,228.37,42.89,19.54,71.73-1.35,133.05-13.68.14,0,.32.05.46.09,8.98,2.28,18.19,10.47,26.61,14.75,10.05,5.12,20.52,9.4,31.4,12.33,30.42,8.14,63.22,6.19,93.09-3.21,13.77-4.33,27.07-10.23,39.36-17.91,70.01,18.89,102.48,48.29,150.49,29.59,14.98-5.81,28.75-15.26,41.26-27.68,0,0,0-.05.05-.05,9.4-9.35,18.1-20.38,25.91-32.8.09-.14.19-.28.28-.47,53.08-84.25,69.03-231.95,27.4-353.83ZM152.95,527.74c-23.68-19.4-36.75-55.87-20.19-84.29,6.88-11.82,22.51-15.77,35.4-14.42,1.91.23,2.98,2.42,5.77.74.65,4.37-.05,8.84-.05,12.89,0,19.31,1.35,41.45,3.72,60.52,1.68,13.58,5.58,26.98,6.98,40.66-11.12-3.95-22.47-8.56-31.63-16.1ZM548.46,404.89c1.12.42,3.68,1.35,4.05,2.42,2.05,5.63-3.72,22.98-5.12,29.45-4.23,19.77-8.65,40.05-13.3,59.64-1.16,4.79-3.07,19.72-6.05,22.52-4.89,4.61-14.33,3.21-20.47,3.53-27.82,1.53-56.66,2-84.62,2.7-11.21.28-13.77-2.98-16.28-13.21-4.42-18-5.63-38.7-8.23-57.17-.05-.28-.09-.56-.14-.88v-.05c-.79-5.68-1.86-12.1-2.65-18.14-.89-6.42-7.21-26.84.79-30.61,8.7-4.14,23.91-1.12,33.54-1.12,28.52.09,58.06-.51,86.43-.42,8.33,0,24.56-1.3,32.05,1.35ZM486.12,382.56c1.07.14,10.24,4.7,8.51,6.23l-92.67.88,7.81-5.07c15.4-4.47,33.03-4.33,48.8-1.86,4,.65,9.77,3.35,13.35,3.44,4.6.09,11.12-3.91,14.19-3.63ZM400.39,288.35c6.47,12.33,14,24.98,22.38,36.01,11.16,14.61,25.31,28.24,39.36,40.38,1.72,1.49,4.56,1.12,4,3.58-1.58-.05-3.21.14-4.84-.09-4-.56-9.35-2.33-13.4-2.6-7.21-.47-14.56.51-21.72-.14l-8.6-18.51c-4.19-8.93-7.35-18.51-10.61-27.91-4.23-12.1-9.54-24.28-9.86-37.17,2.47,1.53,2.23,4.37,3.3,6.47ZM266.5,361.58c32.47-24.89,64.24-65.55,80.66-103.74,3.3-7.63,4.7-16.05,8.93-23.17,1.72,2.28.46,5.02.56,7.49,1.49,42.98,15.07,76.25,43.91,107.97,2.33,2.56,5.58,6.09,8.05,8.42,1.12,1.07,10.61,7.68,9.4,8.89-12.19,2-24.14,8-33.4,16.05-5.26,4.61-10,8.89-10.33,16.38,5.68,2,4.14,3.54,4.51,8.56-6.28-.61-12.51-3.21-18.24.84-.98-.05-3.49-7.35-4.51-8.84-2.79-4.14-20.89-16.28-26.19-19.21-24.14-13.44-54.06-15.03-80.2-7.54l16.84-12.1ZM249.71,387.53c22.14-8,48.29-6.05,69.41,3.95l-76.62.42c.56-1.81,5.58-3.77,7.21-4.37ZM228.26,385.25v7.12c-.37.37-9.54-.42-9.82-2.65l9.82-4.47ZM201.93,413.68c1.07-4.65,4.37-7.26,9.02-7.86,14.79-1.95,32.33-.28,47.31-.42,22.93-.23,52.29-2.65,74.71-.6,1.91.19,8.98,1.86,10,2.93.23.23,2.56,5.4,2.61,5.72.51,3.49-4.98,27.59-6.42,32.38-.56,1.95-1.07,3.95-2.65,5.35-3.49-4.09-9.03-7.07-13.96-9.26-16.75-7.35-35.03-12.65-53.64-8.23-2.47.6-3.91,2.47-5.68,3.02-3.68,1.07-15.07,3.77-18.51,3.86-8.28.09-13.63-3.58-20.93-6.33,2.93,13.26,18.51,22.24,31.54,21.26,9.21-.7,16.56-5.12,25.49-6.09-6.51,7.95-6.42,22.38,1.35,29.35,13.26,12,28.24-2.28,27.17-17.4-.28-4.51-2.42-7.02-3.58-11.07,8.79,1.49,17.31,5.54,25.82,7.63,1.72.42,3.21-1.35,4.47.84-3.16,2.05-1.07,4.93-1.3,7.12-.28,2.23-3.86,10.23-4.65,13.63-2.74,11.4-4.14,22.24-8.51,33.35-2.6,6.75-5.81,11.35-12.79,14-23.77-1.21-48.24,1.4-71.92.6-14.75-.51-17.72-1.72-20.84-16.42-4.7-22.24-6.56-47.96-10.19-70.9-1.02-6.61-5.21-20.93-3.91-26.47ZM643.36,474.57c-2.33,10.93-7.44,20.93-14.33,29.68-3.44,4.33-8.37,7.91-12.65,11.35-4.56,3.63-9.26,7.12-14.09,10.33-4.7,3.21-9.54,6.19-14.51,9.03-2.47,1.35-4.93,2.88-7.49,4.05-1.81.79-4.6.56-5.91,2.14-.84.98-6.14,20.7-7.12,24.05-1.91,6.37-3.53,12.65-6.05,18.89-9.12,22.38-24.05,46.38-38.33,64.85-19.31,24.98-42.57,43.96-67.83,56.15-45.12,21.82-96.67,22.05-143.65-3.67-11.26-6.19-22.24-13.82-32.8-23.03-66.43-57.82-92.25-144.86-90.34-231.25.09-4.28-1.4-8.93-.09-13.77l3.49,8.56c5.54,24.19,4.51,54.24,11.17,77.87,3.02,10.7,9.35,20.33,21.49,20.51,23.96.28,48.57-.19,72.85-.6,16.1-.28,21.63,3.35,33.45-10.65,1.12-1.3.19-3.72,2.79-3.02-.28,12.7.93,25.26,2.47,37.87.14,1.07-.88,2.37-.51,4.19,2.79,14.37,26.52,8,36.52,5.77,8.23-1.81,23.54-5.21,30.8-8.37,11.16-4.84,11.3-15.44-2-14.51-7.21.51-51.73,12.37-53.82,10.61-4.84-31.07-1.02-63.08,5.49-93.69,2.19-10.37,5.68-20.52,8.42-30.75,1.02-3.91,1.12-12.47,4.37-14.38,12.61-7.3,16.05,20.79,17.49,28.61,2.79,14.7,3.49,30.05,5.95,44.75,1.91,11.12,3.91,28.38,11.58,36.61,5.3,5.63,24.8,4.09,32.61,4,22.14-.23,44.57-2.19,66.71-2.74,10.28-.23,22.24,1.02,32.19.09,9.07-.84,11.16-8.33,13.49-15.91,9.26-30.33,13.96-63.13,22.1-93.74.75-2.75,1.86-12.19,2.65-13.35.46-.65,4.98-2.51,6.09-2.79,18.94-4.75,38.05-2.75,51.96,12,13.72,14.61,19.63,34.66,15.4,54.29Z"/>
  </g>
  <g>
    <path class="cls-1" d="M212.91,400c48.6-1.03,98.82-5.3,120.98-2.44s20.65,17.62,18.89,28.16-16.82,79.9-23.85,91.61c-7.03,11.71-15.92,15.2-27.63,16.37s-62.6,1.97-73.04.21c-10.44-1.76-15.92-10.51-18.27-17.54-2.34-7.03-15.23-83.14-15.71-93.36-.45-9.54,4.58-22.71,18.62-23.01Z"/>
    <path class="cls-1" d="M540.58,397.76c-48.6-1.03-113.86-4.79-136.02-1.93-22.16,2.86-20.65,17.62-18.89,28.16,1.76,10.54,7.3,81.28,14.32,92.99s15.92,15.2,27.63,16.37,82.91-.43,93.35-2.19c10.44-1.76,15.92-10.51,18.27-17.54,2.34-7.03,19.48-82.63,19.96-92.85.45-9.54-4.58-22.71-18.62-23.01Z"/>
    <path class="cls-1" d="M353.69,418.36c8.74-4.91,27.13-2.3,31.36,1.31"/>
  </g>
</svg>